<svg width="1267" height="491" viewBox="0 0 1267 491" fill="none" xmlns="http://www.w3.org/2000/svg">
<path d="M58.0108 0.070427C76.5008 0.070427 94.9808 0.0804379 113.471 0.0504379C114.921 0.0504379 115.891 0.27042 116.701 1.75042C142.391 48.6404 166.281 96.4004 186.581 145.91C199.581 177.61 209.661 210.16 215.781 243.9C219.071 262.04 221.861 280.25 224.201 298.54C227.051 320.79 229.261 343.1 231.031 365.45C232.591 385.2 233.911 404.97 234.611 424.78C234.691 427.19 234.131 427.9 231.691 427.79C226.991 427.59 222.261 427.61 217.561 427.79C215.381 427.87 214.471 427.22 213.781 425.1C206.561 402.75 199.091 380.49 190.861 358.48C173.791 312.86 146.881 273.92 111.501 240.67C94.2608 224.47 74.7808 211.27 54.7508 198.84C37.8208 188.34 20.4708 178.59 2.72083 169.56C0.84083 168.6 0.000830384 167.57 0.0108304 165.29C0.0908304 111.23 0.0908306 57.1804 0.0208306 3.12045C0.0208306 0.670445 0.600831 -0.0195804 3.11083 0.000419632C21.4008 0.12042 39.7008 0.070427 58.0108 0.070427Z" fill="#99C567"/>
<path d="M429.75 63.4604C429.75 83.5704 429.72 103.67 429.79 123.78C429.8 125.77 429.21 127.12 427.79 128.49C401.92 153.4 377.39 179.54 355.25 207.85C338.82 228.85 323.79 250.78 312.31 274.94C303.64 293.18 298.45 312.53 294.26 332.19C289.53 354.4 286.2 376.83 283.84 399.41C282.93 408.13 282.05 416.86 281.33 425.6C281.18 427.45 280.53 427.76 278.89 427.76C267.83 427.7 256.78 427.69 245.72 427.76C243.91 427.77 243.16 427.4 243.22 425.4C243.73 408.48 244.1 391.56 245.15 374.66C245.95 361.75 246.56 348.82 247.55 335.92C248.57 322.48 249.92 309.07 251.16 295.65C252.46 281.69 254.24 267.79 256.15 253.91C260.46 222.72 266.31 191.86 275.39 161.68C291.81 107.17 312.75 54.3404 335.06 2.03043C335.69 0.550426 336.45 0.050415 338.06 0.050415C367.79 0.100415 397.52 0.110405 427.24 0.0404053C429.3 0.0404053 429.79 0.610422 429.78 2.62042C429.72 22.8804 429.75 43.1704 429.75 63.4604Z" fill="#99C567"/>
<path d="M0.160601 190.85C1.8706 191.79 3.3606 192.6 4.8406 193.42C29.3506 207.1 53.0206 222.09 75.9606 238.28C113.801 264.98 143.071 299.22 165.851 339.26C180.601 365.18 191.781 392.7 202.291 420.52C202.991 422.38 203.641 424.26 204.401 426.09C204.961 427.45 204.561 427.91 203.171 427.74C202.811 427.7 202.451 427.73 202.081 427.73C174.171 427.73 146.271 427.71 118.361 427.78C116.351 427.79 115.041 427.16 113.711 425.72C102.401 413.46 90.5206 401.8 77.9506 390.83C61.9306 376.86 43.2306 367.41 24.1006 358.69C16.8706 355.39 9.5006 352.4 2.1606 349.32C0.800602 348.75 0.0106016 348.2 0.0206016 346.44C0.0806016 295.11 0.0706018 243.77 0.0706018 192.44C0.0606018 192.04 0.110601 191.62 0.160601 190.85Z" fill="#029B69"/>
<path d="M1025.15 490.661C1024.06 490.691 1022.98 490.751 1021.89 490.751C683.22 490.751 344.55 490.751 5.88048 490.751C2.18048 490.751 2.18048 490.751 2.18048 487.051C2.18048 482.251 2.27048 477.451 2.14048 472.651C2.08048 470.701 2.73048 470.021 4.60048 470.291C5.13048 470.371 5.69048 470.301 6.23048 470.301C344.72 470.301 683.211 470.301 1021.7 470.311C1022.86 470.311 1024.05 470.051 1025.19 470.541C1025.84 471.361 1026.01 472.321 1026.02 473.331C1026.06 478.191 1026.07 483.041 1026.01 487.901C1025.99 488.891 1025.94 489.901 1025.15 490.661Z" fill="#5F5F60"/>
<path d="M236.95 276.91C235.57 270.69 234.23 264.46 232.81 258.24C222.54 213.32 211.48 168.62 195.88 125.19C185.31 95.7904 171.31 67.9204 157.13 40.1604C150.72 27.6104 143.96 15.2304 137.37 2.77045C136.96 1.99045 136.55 1.20045 136.03 0.210449C195.38 0.210449 254.47 0.210449 313.73 0.210449C296.24 44.9604 278.15 89.3904 266.1 135.91C254.06 182.39 245.43 229.57 236.95 276.91Z" fill="#3FAC59"/>
<path d="M904.64 114.44C915.02 83.4505 925.59 52.5905 932.58 20.6805C933.07 18.4405 934 18.0205 936.03 18.1005C940.01 18.2505 944 18.1605 947.99 18.1405C951.87 18.1205 952.05 18.3605 950.62 22.1205C948 29.0505 945.31 35.9505 942.73 42.8905C930.46 75.8105 918.07 108.701 908.54 142.561C908.1 144.121 907.65 145.69 907.23 147.26C905.96 152.05 905.97 152.06 900.9 152.05C896.73 152.05 892.56 151.93 888.39 152.07C886.41 152.14 885.56 151.48 884.98 149.59C879.02 130.26 873.08 110.92 866.89 91.6605C863.33 80.5705 859.31 69.6305 855.5 58.6205C855.39 58.3005 855.4 57.8805 854.6 57.8205C852.47 63.5305 850.28 69.3105 848.17 75.1205C839.78 98.2005 830.55 120.99 823.11 144.42C822.67 145.8 822.04 147.16 821.88 148.57C821.56 151.37 820.24 152.27 817.42 152.12C812.63 151.87 807.81 151.93 803.01 152.08C801.05 152.14 800.42 151.37 799.94 149.62C794.58 130.11 789.32 110.57 783.66 91.1605C777.06 68.5305 770.37 45.9305 763.01 23.5305C761.23 18.1005 761.3 18.1105 766.88 18.1305C774.95 18.1505 783.01 18.2105 791.08 18.0605C793.25 18.0205 794.14 18.5605 794.72 20.7905C802.51 51.2405 809.95 81.7805 818.53 112.031C818.87 113.211 818.89 114.55 819.93 115.64C829.02 89.4305 838.72 63.5605 847.34 37.3005C849.17 31.7205 851.15 26.1905 852.85 20.5805C853.47 18.5205 854.49 18.0005 856.53 18.0705C861.24 18.2305 865.96 18.2605 870.66 18.0705C872.64 17.9905 873.31 18.7705 873.8 20.4905C882.69 51.4005 893.4 81.7305 903.63 112.21C903.88 112.97 903.94 113.83 904.64 114.44Z" fill="#6A6B6D"/>
<path d="M728.071 61.9404C727.731 47.2004 727.491 34.0704 727.071 20.9504C727.001 18.6104 727.691 18.0604 729.911 18.1404C734.711 18.3004 739.521 18.2704 744.311 18.1504C746.181 18.1104 746.551 18.7604 746.481 20.5204C745.781 37.5204 745.271 54.5304 744.491 71.5304C743.991 82.3804 744.631 93.2904 743.371 104.08C741.701 118.41 738.201 132.12 725.981 141.61C717.361 148.31 707.451 152.21 696.691 153.61C681.331 155.61 666.471 153.77 652.091 147.57C637.971 141.47 630.961 130.35 628.221 115.92C626.781 108.33 626.801 100.65 626.941 92.9404C627.301 72.6604 626.751 52.3804 626.271 32.1104C626.181 28.1304 626.151 24.1404 625.981 20.1604C625.911 18.6004 626.431 18.1504 627.961 18.1604C637.291 18.2204 646.631 18.2504 655.961 18.1404C657.941 18.1204 658.161 18.9104 658.061 20.5404C657.411 30.3804 656.561 40.2204 656.281 50.0804C655.801 67.1704 654.871 84.2804 656.491 101.37C657.141 108.21 658.481 114.94 660.361 121.58C663.431 132.39 670.501 138.52 681.491 140.41C689.481 141.78 697.381 141.81 705.001 138.74C714.921 134.74 721.431 127.63 724.511 117.28C727.311 107.88 727.931 98.2604 728.051 88.5704C728.161 79.1504 728.071 69.7404 728.071 61.9404Z" fill="#6B6C6E"/>
<path d="M1042.45 35.4905C1036.27 35.1905 1030.32 34.9205 1024.37 34.6005C1016.05 34.1605 1007.73 33.7305 999.411 33.1805C997.421 33.0505 996.841 33.5405 996.811 35.6305C996.631 48.0305 996.301 60.4305 995.921 72.8205C995.861 74.8105 996.221 75.4205 998.421 75.3305C1012 74.7505 1025.58 74.3605 1039.16 73.9205C1040.21 73.8905 1041.42 73.5505 1040.94 75.4605C1039.74 80.3005 1040.09 85.1505 1041.25 90.3005C1033.7 90.0105 1026.31 89.7305 1018.91 89.4505C1011.94 89.1805 1004.97 88.9405 998.001 88.5905C996.331 88.5105 995.841 89.0105 995.851 90.6905C995.911 105.81 995.911 120.93 995.841 136.05C995.831 137.8 996.441 138.12 998.031 138.13C1011.44 138.18 1024.84 137.93 1038.15 136.02C1040.52 135.68 1041.51 135.93 1041.09 138.8C1040.54 142.54 1040.46 146.41 1041.03 150.17C1041.32 152.1 1040.5 152.071 1039.15 152.031C1034.35 151.881 1029.55 151.84 1024.75 151.65C1005.81 150.92 986.891 151.54 967.961 152.07C965.711 152.13 965.281 151.44 965.351 149.36C965.961 130 966.711 110.64 966.951 91.2705C967.241 68.0005 966.351 44.7405 965.961 21.4805C965.911 18.2505 965.931 18.1805 969.201 18.6405C982.731 20.5705 996.311 19.9305 1009.89 19.4005C1020.12 19.0005 1030.35 18.6905 1040.58 18.3305C1041.73 18.2905 1042.49 18.3005 1042.12 19.9005C1040.95 24.9905 1041.18 30.1005 1042.45 35.4905Z" fill="#6B6C6E"/>
<path d="M1107.86 16.5504C1118.58 16.6504 1128.62 19.1604 1137.91 24.6104C1139.52 25.5504 1139.96 26.2904 1139.05 28.1504C1136.5 33.3704 1135.35 39.0804 1133.91 44.6704C1133.65 45.6704 1133.72 46.8304 1132.08 46.8404C1130.62 46.8504 1129.89 46.5104 1129.35 44.9904C1126.43 36.8004 1121.49 30.4804 1112.47 28.6104C1105.86 27.2404 1099.46 28.0104 1093.76 31.9404C1086.08 37.2304 1084.2 46.8304 1089.27 54.6604C1092.31 59.3604 1096.74 62.4804 1101.49 65.1904C1109.74 69.8904 1117.99 74.5804 1126.26 79.2504C1139.25 86.6004 1145.99 100.46 1144.61 115.28C1142.52 137.81 1126.23 150.01 1107.12 153.21C1092 155.74 1077.18 154.98 1063.29 147.43C1061.49 146.45 1060.82 145.71 1061.55 143.55C1063.7 137.21 1065.17 130.69 1066.26 124.08C1066.41 123.16 1066.08 121.69 1067.9 121.9C1069.27 122.06 1070.77 121.63 1071.27 123.69C1075.47 140.89 1093.66 145.87 1106.89 141.69C1121.89 136.95 1126.41 119.9 1114.45 109.09C1111.95 106.83 1109.2 104.95 1106.29 103.26C1097.92 98.4004 1089.55 93.5504 1081.19 88.6704C1068.24 81.1004 1061.64 66.7204 1063.38 51.8004C1065.83 30.7104 1082.66 18.2304 1101.9 16.9004C1103.88 16.7704 1105.87 16.6704 1107.86 16.5504Z" fill="#6B6B6D"/>
<path d="M1219.84 92.4404C1219.84 111.36 1219.8 130.29 1219.89 149.21C1219.9 151.38 1219.48 152.15 1217.13 152.11C1208.25 151.96 1199.37 152 1190.49 152.09C1188.49 152.11 1187.65 151.8 1187.74 149.48C1188.49 131.3 1189.35 113.12 1189.68 94.9305C1190.04 74.9205 1189.86 54.9105 1189.97 34.9005C1189.98 33.3805 1189.38 33.1505 1188.06 33.1505C1178.17 33.1505 1168.34 33.9305 1158.52 35.0905C1157.98 35.1505 1157.45 35.2805 1156.91 35.3405C1153.82 35.6705 1153.91 35.6805 1154.32 32.7005C1154.9 28.4805 1155.29 24.2305 1154.27 20.0205C1153.95 18.6905 1154.14 18.2604 1155.61 18.3204C1169.55 18.8704 1183.5 19.3005 1197.44 19.9005C1203.61 20.1705 1209.76 19.6604 1215.91 19.5404C1228.32 19.2904 1240.73 18.8005 1253.13 18.3005C1254.85 18.2305 1255.28 18.6104 1255.24 20.3204C1255.12 24.9204 1254.13 29.4905 1255.09 34.1205C1255.52 36.1805 1253.74 35.3505 1252.92 35.2805C1246.7 34.7405 1240.49 33.9705 1234.27 33.5205C1230.03 33.2105 1225.76 33.3405 1221.51 33.1505C1219.87 33.0805 1219.84 33.9305 1219.84 35.1405C1219.85 54.2305 1219.84 73.3404 1219.84 92.4404Z" fill="#6B6C6E"/>
<path d="M710.87 328.81C703.36 328.81 695.86 328.77 688.36 328.85C686.86 328.87 686.59 327.94 686.2 326.93C680.25 311.68 672.86 297.09 665.62 282.43C664.19 279.53 662.71 276.65 661.11 273.47C663.8 273.68 666.11 273.92 668.42 274.04C673.27 274.3 678 273.69 682.49 271.72C689.24 268.76 693.19 261.85 692.32 254.58C691.69 249.37 687.99 245.27 682.28 244.22C674.3 242.74 666.19 243.67 658.14 243.51C656.65 243.48 656.97 244.57 656.94 245.4C656.41 257.79 655.79 270.17 655.4 282.57C654.94 297.23 654.65 311.89 654.36 326.55C654.33 328.21 654.01 328.89 652.12 328.85C646.05 328.71 639.98 328.76 633.91 328.83C632.29 328.85 631.59 328.76 631.79 326.67C634.78 295.02 635.94 263.28 635.88 231.49C635.88 228.76 636.68 228.3 639.21 228.32C653.8 228.43 668.38 228.2 682.97 228.37C688.74 228.44 694.55 228.93 699.94 231.44C710.08 236.15 715.18 245.25 713.84 256.33C712.27 269.35 705.47 277.32 692.82 280.98C692.39 281.11 691.96 281.26 691.53 281.39C686.24 282.97 686.24 282.97 688.69 287.74C695.36 300.78 703.07 313.25 709.92 326.19C710.33 326.95 710.99 327.65 710.87 328.81Z" fill="#5C6872"/>
<path d="M100.53 427.75C98.9304 427.75 98.0504 427.75 97.1704 427.75C65.7504 427.75 34.3304 427.73 2.91036 427.8C0.79036 427.8 -0.00963999 427.5 0.000360007 425.09C0.12036 406.72 0.12036 388.36 0.000360007 369.99C-0.01964 367.25 0.79036 366.85 3.26036 367.39C17.3404 370.47 30.4104 376.08 42.9604 383.02C64.2704 394.79 82.9304 409.99 100.53 427.75Z" fill="#41AD59"/>
<path d="M1127.16 246.73C1121.72 244.78 1116.44 243.25 1110.93 242.66C1106.21 242.15 1101.51 242.11 1097.04 244.05C1089.08 247.49 1087.41 254.48 1092.96 261.09C1095.07 263.6 1097.58 265.69 1100.17 267.67C1107.17 273.01 1113.42 279.18 1119.83 285.18C1121.75 286.97 1123.32 289.07 1124.81 291.25C1132.13 301.92 1128.3 317.65 1117.27 324.59C1111.5 328.22 1105.15 329.71 1098.52 330.32C1087.47 331.34 1076.69 329.33 1065.95 327.08C1065.04 326.89 1064.51 326.44 1064.48 325.45C1064.34 319.94 1063.8 314.46 1063.13 308.64C1067.38 310.11 1071.21 311.87 1075.29 312.89C1082.73 314.75 1090.21 316.08 1097.76 313.59C1106.86 310.59 1108.87 301.92 1102.07 295.17C1095.57 288.72 1088.47 282.94 1081.62 276.88C1077.96 273.63 1074.43 270.24 1071.6 266.21C1063.63 254.88 1066.54 240.11 1078.18 232.53C1083.88 228.82 1090.26 227.28 1096.92 226.81C1106.1 226.16 1115.17 227.35 1124.2 228.93C1125.44 229.15 1125.75 229.77 1125.83 230.95C1126.22 236.05 1126.69 241.18 1127.16 246.73Z" fill="#5C6872"/>
<path d="M1266.41 470.58C1266.48 476.81 1266.52 483.04 1266.63 489.26C1266.65 490.5 1266.14 490.87 1265.03 490.74C1264.76 490.71 1264.49 490.74 1264.22 490.74C1227.03 490.74 1189.85 490.74 1152.66 490.74C1152.21 490.74 1151.76 490.69 1151.31 490.67C1150.6 489.98 1150.49 489.07 1150.48 488.16C1150.41 483.18 1150.41 478.2 1150.47 473.22C1150.49 471.3 1151.16 470.33 1153.38 470.33C1190.52 470.39 1227.67 470.37 1264.81 470.37C1265.35 470.38 1265.9 470.32 1266.41 470.58Z" fill="#009B69"/>
<path d="M856.58 260.43C856.87 250.48 857.36 240.52 857.14 230.56C857.1 228.73 857.7 228.3 859.45 228.32C865.7 228.42 871.95 228.42 878.2 228.31C879.93 228.28 880.57 228.65 880.45 230.52C879.8 241 879.21 251.48 878.7 261.97C877.99 276.43 877.33 290.9 876.69 305.37C876.38 312.51 875.92 319.66 876.17 326.81C876.23 328.62 875.48 328.84 873.94 328.82C867.6 328.75 861.25 328.73 854.91 328.85C853.06 328.88 852.61 328.31 852.78 326.56C853.92 315.12 854.66 303.65 855.13 292.17C855.57 281.59 856.1 271.01 856.58 260.43Z" fill="#5C6872"/>
<path d="M1025.15 490.66C1025.16 483.95 1025.17 477.25 1025.18 470.54C1042.39 470.51 1059.6 470.46 1076.81 470.46C1088.95 470.46 1101.08 470.52 1113.22 470.55C1113.98 471.21 1114.07 472.12 1114.09 473.02C1114.17 478.06 1114.16 483.1 1114.1 488.15C1114.09 489.05 1114.01 489.96 1113.29 490.65C1106.6 490.68 1099.91 490.75 1093.23 490.74C1070.53 490.73 1047.84 490.69 1025.15 490.66Z" fill="#9AC667"/>
<path d="M1008.21 420.47C1004.61 421.1 1002.81 420.36 1000.96 417.1C995.94 408.22 990.06 399.83 984.53 391.24C984 390.42 983.49 389.58 982.82 388.5C986.64 388.5 990.21 389.01 993.74 388.13C1001.89 386.09 1006.53 378.87 1004.88 370.61C1004.04 366.42 1002.19 364.5 997.95 363.7C992.57 362.68 987.11 363.23 981.69 363.1C979.87 363.06 980.31 364.51 980.24 365.43C979.76 371.92 979.3 378.42 978.97 384.93C978.4 396.22 977.85 407.52 977.47 418.82C977.38 421.39 975.78 420.47 974.54 420.67C972.77 420.95 972.89 419.82 973 418.68C974.76 399.93 975.45 381.13 975.81 362.31C975.83 361.33 975.65 360.24 977.24 360.3C984.83 360.59 992.47 359.58 1000.01 360.94C1005.42 361.91 1008.16 365.03 1008.91 370.45C1010.53 382.11 1003.9 390.36 992.07 391.4C991.27 391.47 990.47 391.56 989.18 391.68C995.56 401.34 1001.8 410.78 1008.21 420.47Z" fill="#5C6872"/>
<path d="M762.931 420.65C757.671 420.65 752.421 420.57 747.161 420.69C745.321 420.73 744.871 420.19 745.061 418.4C746.461 405.25 746.991 392.051 747.531 378.841C747.751 373.411 747.901 367.98 747.961 362.55C747.981 360.84 748.431 360.23 750.271 360.25C760.961 360.34 771.661 360.301 782.351 360.291C783.511 360.291 784.431 360.231 784.391 361.921C784.351 363.601 783.661 363.7 782.231 363.68C772.991 363.55 763.741 363.56 754.501 363.45C752.951 363.43 752.221 363.8 752.141 365.51C751.831 372.29 751.461 379.071 750.971 385.841C750.831 387.761 751.361 388.331 753.301 388.291C761.451 388.131 769.611 388.101 777.761 388.091C778.821 388.091 780.411 387.33 780.361 389.65C780.311 391.8 778.911 391.281 777.741 391.281C769.401 391.261 761.071 391.24 752.731 391.19C751.411 391.18 750.561 391.27 750.501 393C750.251 400.42 749.901 407.83 749.461 415.24C749.351 417.07 749.931 417.51 751.691 417.49C760.841 417.4 770.001 417.4 779.151 417.45C779.971 417.45 781.461 416.471 781.511 418.541C781.551 420.411 780.601 420.72 778.971 420.69C773.621 420.59 768.271 420.65 762.931 420.65Z" fill="#5D6972"/>
<path d="M1244.4 371.85C1244.4 367.73 1244.55 364.92 1244.35 362.13C1244.2 360.04 1245.44 360.34 1246.71 360.27C1248.11 360.2 1248.83 360.41 1248.73 362.15C1247.9 375.97 1247.42 389.82 1246.34 403.62C1245.49 414.49 1238.85 420.68 1227.8 421.66C1223.84 422.01 1219.85 422.12 1215.89 421.31C1206.87 419.45 1201.29 413.17 1200.82 403.95C1200.37 395.16 1201.52 386.41 1201.57 377.63C1201.6 372.65 1201.97 367.67 1201.83 362.7C1201.75 360.16 1202.99 360.34 1204.75 360.23C1207.1 360.09 1206.3 361.56 1206.23 362.66C1205.52 374.76 1204.73 386.86 1204.08 398.97C1203.62 407.62 1207.02 414.44 1213.5 416.97C1221.65 420.16 1229.69 419.42 1237.12 414.64C1241.36 411.91 1242.21 407.34 1242.65 402.78C1243.71 392.07 1243.92 381.3 1244.4 371.85Z" fill="#5C6872"/>
<path d="M535.04 360.29C538.42 360.48 542.5 359.95 546.54 360.82C552.25 362.05 555.29 365.43 555.79 371.28C557 385.4 543.34 395.71 529.87 390.9C528.23 390.31 527.93 389.01 528.25 387.98C528.61 386.83 529.78 387.89 530.55 388.06C533.87 388.81 537.17 388.95 540.49 388.11C550.18 385.67 553.33 377.37 551.23 369.03C550.42 365.8 547.98 364.38 544.97 363.76C539.41 362.63 533.78 363.24 528.18 363.09C526.73 363.05 526.94 364.09 526.89 364.95C526.59 369.73 526.25 374.52 526.03 379.3C525.42 392.4 524.78 405.5 524.37 418.61C524.28 421.57 522.46 420.47 521.1 420.63C518.95 420.88 519.7 419.42 519.81 418.34C521.11 405.28 521.68 392.18 522.12 379.07C522.31 373.46 522.5 367.86 522.58 362.25C522.6 360.75 523 360.2 524.58 360.25C527.83 360.37 531.1 360.29 535.04 360.29Z" fill="#5C6872"/>
<path d="M1113.28 490.65C1113.26 483.95 1113.24 477.25 1113.22 470.55C1118.51 469.78 1123.84 470.34 1129.15 470.24C1131.29 470.2 1133.47 469.8 1135.58 470.56C1136.24 471.38 1136.4 472.34 1136.4 473.35C1136.44 478.2 1136.45 483.05 1136.39 487.91C1136.38 488.9 1136.31 489.9 1135.5 490.65C1128.1 490.64 1120.69 490.65 1113.28 490.65Z" fill="#41AD59"/>
<path d="M1135.51 490.64C1135.53 483.95 1135.56 477.25 1135.58 470.56C1142.9 470.45 1150.23 470.26 1157.55 470.25C1192.88 470.22 1228.21 470.23 1263.53 470.25C1264.48 470.25 1265.52 469.88 1266.4 470.58C1253.19 470.6 1239.97 470.64 1226.76 470.64C1202.5 470.64 1178.24 470.65 1153.99 470.57C1151.86 470.56 1151.17 471.13 1151.23 473.3C1151.38 479.08 1151.29 484.88 1151.3 490.66C1146.04 490.66 1140.77 490.65 1135.51 490.64Z" fill="#99C567"/>
<path d="M483.981 205.8C482.911 203.92 482.161 203.51 480.121 204.63C468.141 211.18 456.331 218.03 444.481 224.8C436.651 229.28 428.751 233.64 420.411 238.32C420.411 237.03 420.411 236.06 420.411 235.1C420.411 219.26 420.361 203.41 420.471 187.57C420.491 185.25 419.831 184.75 417.621 184.81C411.371 184.97 405.111 185.02 398.871 184.79C396.301 184.7 395.961 185.61 395.961 187.84C395.971 208.03 396.271 228.22 395.911 248.41C395.871 250.51 395.271 251.8 393.441 252.97C374.781 264.92 356.581 277.58 337.721 289.22C327.161 295.74 323.181 305.24 324.641 317.39C326.291 331.03 339.491 341.591 351.881 341.421C373.891 341.111 395.911 341.3 417.931 341.38C419.941 341.39 420.471 340.92 420.461 338.87C420.371 321.13 420.411 303.38 420.411 285.64C420.411 284.7 420.411 283.76 420.411 282.6C423.471 284.14 425.881 285.87 428.151 287.8C434.961 293.59 439.861 300.86 443.751 308.78C448.601 318.66 453.191 328.681 457.821 338.671C458.511 340.151 459.361 340.82 461.021 340.98C470.701 341.9 480.401 341.06 490.081 341.31C491.791 341.36 491.151 340.34 490.791 339.52C489.451 336.46 488.101 333.4 486.731 330.36C479.571 314.46 472.281 298.64 462.431 284.14C455.781 274.36 447.701 266.33 436.811 261.38C436.341 261.17 435.531 261.15 435.501 260.18C436.651 259.52 437.811 258.84 438.981 258.18C457.301 247.97 475.601 237.75 493.961 227.61C495.701 226.65 495.981 225.93 494.931 224.22C491.191 218.13 487.511 212.01 483.981 205.8ZM394.401 320.73C382.531 320.57 370.661 321.04 358.801 320.49C354.801 320.31 352.011 317.94 350.951 314.16C349.901 310.42 350.681 307.67 354.181 305.49C367.901 296.95 381.721 288.57 396.041 279.8C396.041 293.33 396.021 306.18 396.061 319.02C396.071 320.3 395.731 320.75 394.401 320.73Z" fill="#E2211D"/>
<path d="M1020.82 230.51C1020.25 228.89 1019.56 228.31 1017.79 228.33C1010.18 228.45 1002.57 228.44 994.961 228.33C993.281 228.31 992.431 228.76 991.671 230.3C976.211 261.77 959.681 292.69 943.201 323.64C942.761 324.46 942.561 325.47 941.501 326.04C929.161 309.67 916.271 293.78 904.351 277.16C903.251 275.63 903.521 274.75 904.601 273.47C913.441 263.04 922.221 252.57 931.031 242.11C934.791 237.65 938.581 233.21 942.711 228.33C933.971 228.33 925.851 228.35 917.731 228.31C916.591 228.3 916.181 229.07 915.661 229.78C904.661 244.85 892.751 259.2 880.931 273.62C879.611 275.23 879.501 276.16 880.771 277.9C892.561 294.05 904.151 310.34 915.021 327.13C915.891 328.47 916.821 328.84 918.311 328.82C924.831 328.74 931.361 328.71 937.881 328.8C939.621 328.82 941.021 328.63 941.751 326.43C942.951 328.83 944.761 328.84 946.741 328.8C951.901 328.7 957.081 328.62 962.231 328.85C964.541 328.95 965.511 328.07 966.411 326.12C971.191 315.79 976.161 305.55 980.941 295.22C981.721 293.54 982.621 293.02 984.411 293.04C995.641 293.12 1006.88 293.12 1018.12 293.04C1019.96 293.03 1020.76 293.58 1021.4 295.34C1025.19 305.69 1028.73 316.12 1031.99 326.64C1032.29 327.6 1032.19 328.83 1033.84 328.82C1041.32 328.77 1048.79 328.8 1056.42 328.8C1056.27 328.16 1056.23 327.79 1056.11 327.47C1043.87 295.32 1032.13 262.99 1020.82 230.51ZM988.601 277.71C994.091 266.57 999.481 255.63 1005.16 244.1C1009.06 255.62 1012.74 266.5 1016.53 277.71C1007.11 277.71 998.071 277.71 988.601 277.71Z" fill="#5C6872"/>
<path d="M811.37 232.24C791.39 223.49 771.08 224.68 751.49 234.02C739.03 239.96 730.9 249.94 727.07 263.32C724.75 271.42 723.95 279.58 724.89 287.99C726.92 306.13 736.5 318.551 753.17 325.601C761.87 329.281 771.08 330.55 781.62 330.52C786.31 330.73 792.05 330.01 797.73 328.78C814.25 325.18 826.98 316.61 834.02 300.77C837.96 291.91 839.13 282.56 838.65 272.95C837.7 253.91 828.71 239.83 811.37 232.24ZM816.17 280.51C815.77 286.43 814.32 292.11 811.6 297.4C804.78 310.66 790.88 315.651 777.63 314.481C774.02 314.161 770.5 313.39 767.09 312.09C754.87 307.44 748.78 298.181 747.32 285.601C746.58 279.181 747.08 272.77 749.09 266.56C754.03 251.26 766.54 242.34 785.6 242.43C796.21 242.93 807.22 247.3 812.9 260.37C815.68 266.75 816.64 273.54 816.17 280.51Z" fill="#5B6872"/>
<path d="M601.92 236.51C593.87 230.26 584.37 228.49 574.58 228.36C558.19 228.14 541.79 228.41 525.4 228.31C523.04 228.3 522.64 229.01 522.59 231.15C522.26 245.35 521.88 259.56 521.34 273.76C520.68 291.39 519.71 309.01 518.24 326.59C518.08 328.46 518.66 328.86 520.41 328.84C527.93 328.75 535.45 328.8 542.97 328.8C553.92 328.69 564.88 329.24 575.79 327.73C591.45 325.56 603.49 318.01 610.87 303.87C617.4 291.37 619.21 277.96 617.08 264.09C615.4 253.13 610.95 243.52 601.92 236.51ZM591.54 293.83C586.91 304.78 578.63 311.14 566.63 312.53C558.69 313.45 550.75 313.68 542.78 313.23C541.05 313.13 540.73 312.59 540.8 310.97C541.72 290.28 542.57 269.58 543.44 248.88C543.65 243.88 543.66 243.84 548.62 243.67C551.51 243.58 554.41 243.65 557.31 243.65C562.56 243.46 567.81 243.31 573.03 244.08C583.93 245.68 591.16 252.12 593.89 263.01C596.51 273.52 595.75 283.89 591.54 293.83Z" fill="#5C6872"/>
<path d="M1246.87 327.3C1234.85 295.07 1222.74 262.87 1211.57 230.33C1211.04 228.79 1210.27 228.31 1208.63 228.34C1201.29 228.45 1193.95 228.53 1186.62 228.32C1184.21 228.25 1183.23 229.09 1182.22 231.13C1166.29 263.17 1149.7 294.87 1132.57 326.28C1132.16 327.04 1131.42 327.69 1131.63 328.79C1138.98 328.79 1146.32 328.71 1153.65 328.84C1155.49 328.87 1156.31 328.28 1157.06 326.65C1161.91 316.15 1166.92 305.74 1171.76 295.24C1172.52 293.59 1173.42 293.03 1175.23 293.04C1186.47 293.13 1197.7 293.14 1208.94 293.03C1210.93 293.01 1211.77 293.69 1212.39 295.49C1215.94 305.82 1219.72 316.07 1222.79 326.56C1223.09 327.58 1223.02 328.86 1224.84 328.83C1232.25 328.73 1239.67 328.79 1247.22 328.79C1247.07 328.16 1247.03 327.71 1246.87 327.3ZM1179.51 277.66C1184.94 266.61 1190.3 255.7 1195.97 244.15C1199.91 255.63 1203.65 266.54 1207.46 277.66C1198.06 277.66 1188.95 277.66 1179.51 277.66Z" fill="#5C6872"/>
<path d="M598.39 58.5604C593.24 41.1804 582.24 28.6104 564.79 22.4804C552.8 18.2704 540.24 18.2804 527.75 18.2904C510.56 18.3004 493.38 20.4004 476.19 18.5104C474.63 18.3404 474.12 18.6804 474.19 20.3004C474.39 24.6404 474.43 28.9904 474.55 33.3304C475.04 50.6104 475.54 67.8904 475.89 80.1404C475.26 106.62 474.77 128.06 474.18 149.51C474.12 151.57 474.55 152.04 476.69 151.86C484.55 151.22 492.42 151.29 500.31 151.37C514.33 151.51 528.37 153.02 542.37 151.13C559.53 148.82 574.29 141.56 585.57 128.39C603.27 107.71 605.88 83.8404 598.39 58.5604ZM561.12 121.11C555.38 132.11 545.16 137.44 533.22 139.72C524.4 141.41 515.54 140.68 506.68 140.32C504.93 140.25 505.17 139.2 505.16 138.15C505 128.56 504.79 118.97 504.7 109.37C504.62 101.41 504.68 93.4404 504.68 85.4804C504.6 85.4804 504.52 85.4804 504.44 85.4804C504.76 68.2004 505.14 50.9104 505.36 33.6304C505.39 31.2604 506.07 30.5604 508.42 30.4804C517.01 30.2004 525.57 29.3704 534.17 30.5904C550.64 32.9204 561.02 42.5304 566.18 57.8004C573.51 79.5304 571.69 100.86 561.12 121.11Z" fill="#6B6C6E"/>
</svg>
