<svg xmlns="http://www.w3.org/2000/svg" xmlns:xlink="http://www.w3.org/1999/xlink" width="560" zoomAndPan="magnify" viewBox="0 0 420 281.25" height="375" preserveAspectRatio="xMidYMid meet" version="1.0"><defs><clipPath id="7e46248f64"><path d="M 108.191406 23.898438 L 311.648438 23.898438 L 311.648438 256.527344 L 108.191406 256.527344 Z M 108.191406 23.898438 " clip-rule="nonzero"/></clipPath></defs><g clip-path="url(#7e46248f64)"><path fill="#000000" d="M 199.128906 146.03125 L 238.046875 107.097656 C 239.820312 105.324219 242.695312 105.324219 244.46875 107.097656 C 246.242188 108.875 246.242188 111.75 244.46875 113.523438 L 201.941406 156.070312 C 201.089844 156.921875 199.933594 157.398438 198.730469 157.398438 C 198.644531 157.398438 198.554688 157.398438 198.464844 157.390625 C 197.171875 157.316406 195.972656 156.691406 195.167969 155.671875 L 175.0625 130.210938 C 173.507812 128.242188 173.84375 125.386719 175.8125 123.828125 C 177.78125 122.273438 180.636719 122.609375 182.191406 124.578125 Z M 209.941406 69.4375 C 244.195312 69.4375 272.058594 97.316406 272.058594 131.582031 C 272.058594 165.851562 244.195312 193.726562 209.941406 193.726562 C 175.691406 193.726562 147.824219 165.851562 147.824219 131.582031 C 147.824219 97.316406 175.691406 69.4375 209.941406 69.4375 Z M 209.941406 78.523438 C 180.699219 78.523438 156.90625 102.328125 156.90625 131.582031 C 156.90625 160.839844 180.699219 184.640625 209.941406 184.640625 C 239.183594 184.640625 262.976562 160.839844 262.976562 131.582031 C 262.976562 102.328125 239.183594 78.523438 209.941406 78.523438 Z M 311.566406 55.226562 L 311.566406 140.085938 C 311.566406 153.785156 308.277344 167.574219 301.789062 181.074219 C 295.972656 193.171875 287.742188 204.769531 277.320312 215.550781 C 258.46875 235.054688 233.71875 250.3125 211.117188 256.371094 C 210.730469 256.476562 210.335938 256.527344 209.941406 256.527344 C 209.546875 256.527344 209.152344 256.476562 208.765625 256.371094 C 186.164062 250.3125 161.414062 235.054688 142.566406 215.554688 C 132.140625 204.769531 123.910156 193.171875 118.09375 181.074219 C 111.605469 167.574219 108.316406 153.785156 108.316406 140.085938 L 108.316406 55.226562 C 108.316406 52.855469 110.136719 50.882812 112.496094 50.695312 C 140.417969 48.472656 163.996094 35.355469 178.859375 24.742188 C 179.632812 24.191406 180.554688 23.898438 181.5 23.898438 L 238.382812 23.898438 C 239.328125 23.898438 240.25 24.191406 241.023438 24.742188 C 255.886719 35.355469 279.464844 48.472656 307.386719 50.695312 C 309.746094 50.882812 311.566406 52.855469 311.566406 55.226562 Z M 302.484375 59.34375 C 280.476562 56.773438 257.929688 47.714844 236.9375 32.984375 L 182.945312 32.984375 C 161.953125 47.714844 139.410156 56.773438 117.398438 59.34375 L 117.398438 140.085938 C 117.398438 192.59375 171.691406 236.425781 209.941406 247.269531 C 248.195312 236.425781 302.484375 192.59375 302.484375 140.085938 Z M 302.484375 59.34375 " fill-opacity="1" fill-rule="nonzero"/></g></svg>