<svg xmlns="http://www.w3.org/2000/svg" xmlns:xlink="http://www.w3.org/1999/xlink" width="415" zoomAndPan="magnify" viewBox="0 0 311.25 434.999987" height="580" preserveAspectRatio="xMidYMid meet" version="1.0"><defs><clipPath id="1a26ec5fb0"><path d="M 31.878906 94.433594 L 278.78125 94.433594 L 278.78125 340.59375 L 31.878906 340.59375 Z M 31.878906 94.433594 " clip-rule="nonzero"/></clipPath></defs><path fill="#000000" d="M 79.171875 230.984375 L 71.84375 237.613281 L 71.84375 245.636719 L 112.0625 245.636719 L 112.0625 234.734375 L 90.6875 234.734375 L 90.6875 234.5625 L 95.921875 230.199219 C 104.125 222.875 111.015625 215.289062 111.015625 205.785156 C 111.015625 195.492188 103.949219 187.996094 91.125 187.996094 C 83.445312 187.996094 76.816406 190.609375 72.539062 193.839844 L 76.292969 203.34375 C 79.257812 201.074219 83.535156 198.632812 88.421875 198.632812 C 94.964844 198.632812 97.753906 202.296875 97.753906 206.917969 C 97.582031 213.546875 91.558594 219.910156 79.171875 230.984375 " fill-opacity="1" fill-rule="nonzero"/><path fill="#000000" d="M 130.996094 222.179688 L 130.996094 222.003906 L 138.585938 209.621094 C 140.507812 206.046875 141.988281 202.734375 143.824219 199.070312 L 144.171875 199.070312 C 143.910156 202.734375 143.734375 206.222656 143.734375 209.621094 L 143.734375 222.179688 Z M 156.296875 245.636719 L 156.296875 232.121094 L 163.105469 232.121094 L 163.105469 222.179688 L 156.296875 222.179688 L 156.296875 188.957031 L 140.070312 188.957031 L 118.605469 223.488281 L 118.605469 232.121094 L 143.734375 232.121094 L 143.734375 245.636719 L 156.296875 245.636719 " fill-opacity="1" fill-rule="nonzero"/><path fill="#000000" d="M 175.230469 249.125 L 193.902344 185.902344 L 185.089844 185.902344 L 166.417969 249.125 L 175.230469 249.125 " fill-opacity="1" fill-rule="nonzero"/><path fill="#000000" d="M 200.796875 245.636719 L 214.839844 245.636719 L 238.222656 197.328125 L 238.222656 188.957031 L 198.175781 188.957031 L 198.175781 199.855469 L 224.175781 199.855469 L 224.175781 200.027344 L 200.796875 245.636719 " fill-opacity="1" fill-rule="nonzero"/><g clip-path="url(#1a26ec5fb0)"><path fill="#000000" d="M 278.074219 212.558594 L 256.296875 213.433594 C 257.425781 241.613281 246.636719 269.207031 226.695312 289.140625 C 187.179688 328.632812 122.882812 328.632812 83.371094 289.140625 C 43.855469 249.644531 43.855469 185.382812 83.371094 145.886719 C 122.882812 106.394531 187.179688 106.394531 226.695312 145.886719 L 215.101562 157.476562 L 253.703125 157.476562 L 253.703125 118.894531 L 242.109375 130.484375 C 218.847656 107.238281 187.925781 94.4375 155.03125 94.4375 C 122.140625 94.4375 91.21875 107.238281 67.960938 130.484375 C 44.699219 153.730469 31.890625 184.636719 31.890625 217.511719 C 31.890625 250.390625 44.699219 281.296875 67.960938 304.542969 C 91.21875 327.789062 122.140625 340.589844 155.03125 340.589844 C 187.925781 340.589844 218.847656 327.789062 242.109375 304.542969 C 254.476562 292.179688 263.886719 277.691406 270.078125 261.480469 C 276.058594 245.828125 278.75 229.367188 278.074219 212.558594 " fill-opacity="1" fill-rule="nonzero"/></g></svg>