<svg xmlns="http://www.w3.org/2000/svg" xmlns:xlink="http://www.w3.org/1999/xlink" width="415" zoomAndPan="magnify" viewBox="0 0 311.25 434.999987" height="580" preserveAspectRatio="xMidYMid meet" version="1.0"><defs><clipPath id="a893266acd"><path d="M 61 107.925781 L 250 107.925781 L 250 327.144531 L 61 327.144531 Z M 61 107.925781 " clip-rule="nonzero"/></clipPath></defs><g clip-path="url(#a893266acd)"><path fill="#000000" d="M 249.070312 190.15625 L 249.070312 243.117188 C 249.070312 250.585938 243.085938 256.675781 235.722656 256.675781 C 228.363281 256.675781 222.410156 250.585938 222.410156 243.117188 L 222.410156 190.15625 C 222.410156 182.6875 228.355469 176.625 235.722656 176.625 C 243.09375 176.625 249.070312 182.6875 249.070312 190.15625 Z M 74.816406 176.617188 C 67.460938 176.617188 61.5 182.6875 61.5 190.148438 L 61.5 243.109375 C 61.5 250.578125 67.460938 256.667969 74.816406 256.667969 C 82.21875 256.667969 88.160156 250.578125 88.160156 243.109375 L 88.160156 190.15625 C 88.160156 182.6875 82.21875 176.617188 74.816406 176.617188 Z M 96.207031 273.742188 C 96.207031 279.5 100.867188 284.136719 106.609375 284.136719 L 118.5 284.136719 L 118.5 313.605469 C 118.5 321.074219 124.484375 327.136719 131.847656 327.136719 C 139.207031 327.136719 145.175781 321.074219 145.175781 313.605469 L 145.175781 284.144531 L 165.917969 284.144531 L 165.917969 313.613281 C 165.917969 321.082031 171.921875 327.144531 179.265625 327.144531 C 186.636719 327.144531 192.613281 321.082031 192.613281 313.613281 L 192.613281 284.144531 L 204.476562 284.144531 C 210.234375 284.144531 214.898438 279.507812 214.898438 273.75 L 214.898438 177.03125 L 96.207031 177.03125 Z M 214.609375 168.421875 L 95.9375 168.421875 C 97.488281 150.429688 109.714844 135.023438 127.160156 126.921875 L 116.1875 110.984375 C 115.539062 110.050781 115.683594 108.808594 116.535156 108.21875 C 117.386719 107.644531 118.609375 107.933594 119.28125 108.867188 L 130.65625 125.410156 C 138.171875 122.460938 146.492188 120.789062 155.285156 120.789062 C 164.082031 120.789062 172.386719 122.460938 179.914062 125.410156 L 191.289062 108.867188 C 191.964844 107.933594 193.1875 107.644531 194.039062 108.21875 C 194.890625 108.808594 195.03125 110.050781 194.382812 110.984375 L 183.414062 126.921875 C 200.851562 135.023438 213.085938 150.429688 214.609375 168.421875 Z M 136.828125 145.417969 C 136.828125 141.792969 133.878906 138.867188 130.253906 138.867188 C 126.628906 138.867188 123.675781 141.800781 123.675781 145.417969 C 123.675781 149.0625 126.628906 151.996094 130.253906 151.996094 C 133.878906 151.996094 136.828125 149.0625 136.828125 145.417969 Z M 187.707031 145.417969 C 187.707031 141.792969 184.769531 138.867188 181.128906 138.867188 C 177.503906 138.867188 174.578125 141.800781 174.578125 145.417969 C 174.578125 149.0625 177.511719 151.996094 181.128906 151.996094 C 184.769531 151.996094 187.707031 149.0625 187.707031 145.417969 Z M 187.707031 145.417969 " fill-opacity="1" fill-rule="evenodd"/></g></svg>