<svg xmlns="http://www.w3.org/2000/svg" xmlns:xlink="http://www.w3.org/1999/xlink" width="500" zoomAndPan="magnify" viewBox="0 0 375 374.999991" height="500" preserveAspectRatio="xMidYMid meet" version="1.0"><defs><g/><clipPath id="3a105d809a"><path d="M 11.207031 22 L 363.707031 22 L 363.707031 353 L 11.207031 353 Z M 11.207031 22 " clip-rule="nonzero"/></clipPath></defs><g clip-path="url(#3a105d809a)"><path fill="#005400" d="M 363.488281 223.925781 L 363.488281 253.304688 L 222.308594 342.992188 C 201.546875 356.199219 173.367188 356.199219 152.601562 342.992188 L 11.425781 253.234375 L 11.425781 223.855469 L 19.6875 223.855469 L 19.6875 248.710938 L 157.050781 335.929688 C 175.203125 347.441406 199.78125 347.441406 217.859375 335.929688 C 266.238281 305.28125 355.226562 248.710938 355.226562 248.710938 L 355.226562 223.925781 Z M 11.425781 150.972656 L 11.425781 121.59375 L 15.238281 119.191406 L 152.601562 31.90625 C 173.367188 18.699219 201.546875 18.699219 222.308594 31.90625 L 363.488281 121.59375 L 363.488281 150.972656 L 355.226562 150.972656 L 355.226562 126.183594 C 355.226562 126.183594 266.238281 69.6875 217.859375 38.96875 C 199.710938 27.457031 175.132812 27.457031 157.050781 38.96875 L 19.6875 126.113281 L 19.6875 150.902344 L 11.425781 150.902344 Z M 11.425781 150.972656 " fill-opacity="1" fill-rule="evenodd"/></g><path fill="#009300" d="M 191.304688 138.402344 C 151.96875 137.90625 113.265625 119.546875 142.503906 59.304688 C 144.621094 76.398438 157.121094 77.386719 168.988281 83.527344 C 179.371094 88.898438 189.1875 98.148438 191.023438 125.40625 C 172.871094 116.085938 157.898438 103.089844 148.929688 83.527344 C 155.78125 115.238281 173.507812 126.890625 191.304688 138.402344 Z M 200.34375 138.402344 C 228.453125 138.050781 256.140625 124.914062 235.234375 81.765625 C 233.75 93.980469 224.78125 94.6875 216.304688 99.066406 C 208.890625 102.878906 201.898438 109.519531 200.558594 129.082031 C 213.550781 122.371094 224.214844 113.121094 230.714844 99.066406 C 225.769531 121.875 213.058594 130.210938 200.34375 138.402344 Z M 200.34375 138.402344 " fill-opacity="1" fill-rule="evenodd"/><path fill="#009300" d="M 270.6875 276.46875 L 249.851562 286.496094 L 215.246094 223.925781 L 219.132812 223.925781 Z M 270.6875 276.46875 " fill-opacity="1" fill-rule="evenodd"/><path fill="#009300" d="M 125.484375 285.71875 L 104.648438 275.972656 L 155.78125 223.925781 L 159.59375 223.925781 Z M 125.484375 285.71875 " fill-opacity="1" fill-rule="evenodd"/><path fill="#005400" d="M 241.449219 290.519531 L 197.167969 311.777344 L 197.167969 223.925781 L 204.652344 223.925781 Z M 177.675781 310.082031 L 133.886719 289.601562 L 170.1875 223.855469 L 177.675781 223.855469 Z M 310.308594 257.398438 L 279.585938 272.160156 L 232.195312 223.855469 L 247.945312 223.855469 Z M 95.75 271.804688 L 64.746094 257.328125 L 126.964844 223.855469 L 142.785156 223.855469 Z M 95.75 271.804688 " fill-opacity="1" fill-rule="evenodd"/><path fill="#009300" d="M 267.507812 223.925781 L 321.75 223.925781 L 321.75 251.890625 L 320.617188 252.457031 Z M 267.507812 223.925781 " fill-opacity="1" fill-rule="evenodd"/><path fill="#009300" d="M 107.402344 223.925781 L 54.292969 252.457031 L 53.164062 251.890625 L 53.164062 223.925781 Z M 107.402344 223.925781 " fill-opacity="1" fill-rule="evenodd"/><g fill="#1b4721" fill-opacity="1"><g transform="translate(110.207027, 201.227659)"><g><path d="M 2.34375 -41.140625 L 8.8125 -41.140625 L 8.8125 0 L 2.34375 0 Z M 2.34375 -41.140625 "/></g></g></g><g fill="#000000" fill-opacity="1"><g transform="translate(127.072253, 201.227659)"><g><path d="M 23.265625 0 L 16.75 0 L 15.625 -7.46875 L 7.703125 -7.46875 L 6.578125 0 L 0.640625 0 L 7.234375 -41.140625 L 16.6875 -41.140625 Z M 8.515625 -13.046875 L 14.75 -13.046875 L 11.640625 -33.84375 Z M 8.515625 -13.046875 "/></g></g></g><g fill="#000000" fill-opacity="1"><g transform="translate(156.682011, 201.227659)"><g><path d="M 12.046875 -22.921875 L 21.09375 -22.921875 L 21.09375 -9.875 C 21.09375 -6.539062 20.28125 -3.984375 18.65625 -2.203125 C 17.03125 -0.421875 14.628906 0.46875 11.453125 0.46875 C 8.285156 0.46875 5.890625 -0.421875 4.265625 -2.203125 C 2.640625 -3.984375 1.828125 -6.539062 1.828125 -9.875 L 1.828125 -31.265625 C 1.828125 -34.597656 2.640625 -37.15625 4.265625 -38.9375 C 5.890625 -40.71875 8.285156 -41.609375 11.453125 -41.609375 C 14.628906 -41.609375 17.03125 -40.71875 18.65625 -38.9375 C 20.28125 -37.15625 21.09375 -34.597656 21.09375 -31.265625 L 21.09375 -27.265625 L 14.984375 -27.265625 L 14.984375 -31.671875 C 14.984375 -33.160156 14.675781 -34.207031 14.0625 -34.8125 C 13.457031 -35.425781 12.648438 -35.734375 11.640625 -35.734375 C 10.617188 -35.734375 9.800781 -35.425781 9.1875 -34.8125 C 8.582031 -34.207031 8.28125 -33.160156 8.28125 -31.671875 L 8.28125 -9.46875 C 8.28125 -7.976562 8.582031 -6.9375 9.1875 -6.34375 C 9.800781 -5.757812 10.617188 -5.46875 11.640625 -5.46875 C 12.648438 -5.46875 13.457031 -5.757812 14.0625 -6.34375 C 14.675781 -6.9375 14.984375 -7.976562 14.984375 -9.46875 L 14.984375 -17.046875 L 12.046875 -17.046875 Z M 12.046875 -22.921875 "/></g></g></g><g fill="#000000" fill-opacity="1"><g transform="translate(185.293082, 201.227659)"><g><path d="M 15.859375 0 C 15.785156 -0.269531 15.707031 -0.519531 15.625 -0.75 C 15.550781 -0.988281 15.484375 -1.285156 15.421875 -1.640625 C 15.367188 -1.992188 15.332031 -2.441406 15.3125 -2.984375 C 15.289062 -3.535156 15.28125 -4.222656 15.28125 -5.046875 L 15.28125 -11.515625 C 15.28125 -13.429688 14.945312 -14.78125 14.28125 -15.5625 C 13.613281 -16.351562 12.535156 -16.75 11.046875 -16.75 L 8.8125 -16.75 L 8.8125 0 L 2.34375 0 L 2.34375 -41.140625 L 12.109375 -41.140625 C 15.472656 -41.140625 17.910156 -40.351562 19.421875 -38.78125 C 20.929688 -37.21875 21.6875 -34.847656 21.6875 -31.671875 L 21.6875 -28.4375 C 21.6875 -24.207031 20.273438 -21.425781 17.453125 -20.09375 C 19.097656 -19.425781 20.222656 -18.335938 20.828125 -16.828125 C 21.441406 -15.328125 21.75 -13.5 21.75 -11.34375 L 21.75 -5 C 21.75 -3.976562 21.785156 -3.082031 21.859375 -2.3125 C 21.941406 -1.550781 22.140625 -0.78125 22.453125 0 Z M 8.8125 -35.265625 L 8.8125 -22.625 L 11.34375 -22.625 C 12.550781 -22.625 13.5 -22.9375 14.1875 -23.5625 C 14.875 -24.1875 15.21875 -25.320312 15.21875 -26.96875 L 15.21875 -31.03125 C 15.21875 -32.519531 14.953125 -33.597656 14.421875 -34.265625 C 13.898438 -34.929688 13.066406 -35.265625 11.921875 -35.265625 Z M 8.8125 -35.265625 "/></g></g></g><g fill="#1b4721" fill-opacity="1"><g transform="translate(214.625385, 201.227659)"><g><path d="M 8.28125 -9.46875 C 8.28125 -7.976562 8.582031 -6.925781 9.1875 -6.3125 C 9.800781 -5.707031 10.617188 -5.40625 11.640625 -5.40625 C 12.648438 -5.40625 13.457031 -5.707031 14.0625 -6.3125 C 14.675781 -6.925781 14.984375 -7.976562 14.984375 -9.46875 L 14.984375 -31.671875 C 14.984375 -33.160156 14.675781 -34.207031 14.0625 -34.8125 C 13.457031 -35.425781 12.648438 -35.734375 11.640625 -35.734375 C 10.617188 -35.734375 9.800781 -35.425781 9.1875 -34.8125 C 8.582031 -34.207031 8.28125 -33.160156 8.28125 -31.671875 Z M 1.828125 -31.265625 C 1.828125 -34.597656 2.664062 -37.15625 4.34375 -38.9375 C 6.03125 -40.71875 8.460938 -41.609375 11.640625 -41.609375 C 14.804688 -41.609375 17.234375 -40.71875 18.921875 -38.9375 C 20.609375 -37.15625 21.453125 -34.597656 21.453125 -31.265625 L 21.453125 -9.875 C 21.453125 -6.539062 20.609375 -3.984375 18.921875 -2.203125 C 17.234375 -0.421875 14.804688 0.46875 11.640625 0.46875 C 8.460938 0.46875 6.03125 -0.421875 4.34375 -2.203125 C 2.664062 -3.984375 1.828125 -6.539062 1.828125 -9.875 Z M 1.828125 -31.265625 "/></g></g></g><g fill="#1b4721" fill-opacity="1"><g transform="translate(243.588929, 201.227659)"><g><path d="M 0.59375 -41.140625 L 20.5625 -41.140625 L 20.5625 -35.265625 L 13.8125 -35.265625 L 13.8125 0 L 7.34375 0 L 7.34375 -35.265625 L 0.59375 -35.265625 Z M 0.59375 -41.140625 "/></g></g></g></svg>