<svg xmlns="http://www.w3.org/2000/svg" xmlns:xlink="http://www.w3.org/1999/xlink" width="500" zoomAndPan="magnify" viewBox="0 0 375 374.999991" height="500" preserveAspectRatio="xMidYMid meet" version="1.0"><defs><g/><clipPath id="94f90c7781"><path d="M 186 95 L 263 95 L 263 147 L 186 147 Z M 186 95 " clip-rule="nonzero"/></clipPath><clipPath id="2dbea245bf"><path d="M 173.09375 124.621094 L 249.878906 76.257812 L 277.859375 120.679688 L 201.074219 169.046875 Z M 173.09375 124.621094 " clip-rule="nonzero"/></clipPath><clipPath id="828d90098e"><path d="M 173.09375 124.621094 L 249.878906 76.257812 L 277.859375 120.679688 L 201.074219 169.046875 Z M 173.09375 124.621094 " clip-rule="nonzero"/></clipPath><clipPath id="262a8a031c"><path d="M 202 111 L 260 111 L 260 151 L 202 151 Z M 202 111 " clip-rule="nonzero"/></clipPath><clipPath id="c61104ed3b"><path d="M 173.09375 124.621094 L 249.878906 76.257812 L 277.859375 120.679688 L 201.074219 169.046875 Z M 173.09375 124.621094 " clip-rule="nonzero"/></clipPath><clipPath id="36e93f3785"><path d="M 173.09375 124.621094 L 249.878906 76.257812 L 277.859375 120.679688 L 201.074219 169.046875 Z M 173.09375 124.621094 " clip-rule="nonzero"/></clipPath><clipPath id="b8ba45af80"><path d="M 218 128 L 256 128 L 256 154 L 218 154 Z M 218 128 " clip-rule="nonzero"/></clipPath><clipPath id="a5f6f77b95"><path d="M 173.09375 124.621094 L 249.878906 76.257812 L 277.859375 120.679688 L 201.074219 169.046875 Z M 173.09375 124.621094 " clip-rule="nonzero"/></clipPath><clipPath id="81d223b23e"><path d="M 173.09375 124.621094 L 249.878906 76.257812 L 277.859375 120.679688 L 201.074219 169.046875 Z M 173.09375 124.621094 " clip-rule="nonzero"/></clipPath></defs><g clip-path="url(#94f90c7781)"><g clip-path="url(#2dbea245bf)"><g clip-path="url(#828d90098e)"><path fill="#545454" d="M 193.148438 146.640625 C 196.996094 131.628906 206.414062 119.402344 218.671875 111.683594 C 230.925781 103.964844 246.019531 100.75 261.222656 103.761719 L 262.824219 96.703125 C 228.527344 89.796875 194.675781 111.121094 186.089844 145.035156 Z M 193.148438 146.640625 " fill-opacity="1" fill-rule="nonzero"/></g></g></g><g clip-path="url(#262a8a031c)"><g clip-path="url(#c61104ed3b)"><g clip-path="url(#36e93f3785)"><path fill="#545454" d="M 259.15625 112.867188 C 246.863281 110.496094 234.3125 112.851562 223.640625 119.574219 C 212.96875 126.292969 205.421875 136.59375 202.253906 148.707031 L 209.3125 150.3125 C 212.050781 140.082031 218.460938 131.386719 227.496094 125.695312 C 236.53125 120.003906 247.144531 117.980469 257.550781 119.925781 Z M 259.15625 112.867188 " fill-opacity="1" fill-rule="nonzero"/></g></g></g><g clip-path="url(#b8ba45af80)"><g clip-path="url(#a5f6f77b95)"><g clip-path="url(#81d223b23e)"><path fill="#545454" d="M 253.878906 136.101562 L 255.480469 129.035156 C 247.503906 127.632812 239.390625 129.226562 232.46875 133.585938 C 225.546875 137.945312 220.605469 144.578125 218.421875 152.378906 L 225.488281 153.984375 C 227.292969 147.878906 231.25 142.902344 236.324219 139.707031 C 241.398438 136.511719 247.589844 135.09375 253.878906 136.101562 Z M 253.878906 136.101562 " fill-opacity="1" fill-rule="nonzero"/></g></g></g><g fill="#000000" fill-opacity="0.4"><g transform="translate(16.264995, 228.181674)"><g><path d="M 23.015625 -76.578125 L 23.015625 0 L 5.5625 0 L 5.5625 -76.578125 Z M 23.015625 -76.578125 "/></g></g></g><g fill="#000000" fill-opacity="0.4"><g transform="translate(44.855957, 228.181674)"><g><path d="M 44.46875 -76.578125 L 75.375 0 L 56.625 0 L 50.96875 -15.3125 L 21.8125 -15.3125 L 16.15625 0 L -2.59375 0 L 28.3125 -76.578125 Z M 45.015625 -30.640625 L 36.484375 -52.90625 L 36.296875 -52.90625 L 27.75 -30.640625 Z M 45.015625 -30.640625 "/></g></g></g><g fill="#000000" fill-opacity="0.4"><g transform="translate(117.632942, 228.181674)"><g><path d="M 3.4375 11.703125 L 16.890625 5.109375 C 19.367188 9.191406 23.671875 11.234375 29.796875 11.234375 C 32.640625 11.234375 35.285156 10.316406 37.734375 8.484375 C 40.179688 6.660156 41.40625 3.863281 41.40625 0.09375 L 41.40625 -3.4375 C 38.488281 -0.21875 33.289062 1.390625 25.8125 1.390625 C 18.9375 1.390625 13.269531 -1.035156 8.8125 -5.890625 C 4.363281 -10.753906 2.140625 -16.710938 2.140625 -23.765625 C 2.140625 -30.816406 4.363281 -36.785156 8.8125 -41.671875 C 13.269531 -46.566406 18.9375 -49.015625 25.8125 -49.015625 C 31.9375 -49.015625 37.039062 -47.125 41.125 -43.34375 L 41.40625 -43.34375 L 41.40625 -47.625 L 57.828125 -47.625 L 57.828125 1.296875 C 57.828125 9.035156 55.257812 15.007812 50.125 19.21875 C 44.988281 23.425781 38.210938 25.53125 29.796875 25.53125 C 16.179688 25.53125 7.394531 20.921875 3.4375 11.703125 Z M 22.78125 -31.84375 C 20.65625 -29.738281 19.59375 -27.046875 19.59375 -23.765625 C 19.59375 -20.484375 20.613281 -17.804688 22.65625 -15.734375 C 24.695312 -13.660156 27.382812 -12.625 30.71875 -12.625 C 33.9375 -12.625 36.582031 -13.675781 38.65625 -15.78125 C 40.726562 -17.882812 41.765625 -20.546875 41.765625 -23.765625 C 41.765625 -27.046875 40.695312 -29.738281 38.5625 -31.84375 C 36.4375 -33.945312 33.820312 -35 30.71875 -35 C 27.5625 -35 24.914062 -33.945312 22.78125 -31.84375 Z M 22.78125 -31.84375 "/></g></g></g><g fill="#000000" fill-opacity="0.4"><g transform="translate(181.034317, 228.181674)"><g><path d="M 5.5625 0 L 5.5625 -47.625 L 22 -47.625 L 22 -40.75 L 22.1875 -40.75 C 22.3125 -41 22.507812 -41.304688 22.78125 -41.671875 C 23.0625 -42.046875 23.664062 -42.695312 24.59375 -43.625 C 25.519531 -44.550781 26.507812 -45.382812 27.5625 -46.125 C 28.613281 -46.875 29.972656 -47.539062 31.640625 -48.125 C 33.316406 -48.71875 35.023438 -49.015625 36.765625 -49.015625 C 38.554688 -49.015625 40.316406 -48.765625 42.046875 -48.265625 C 43.785156 -47.773438 45.054688 -47.28125 45.859375 -46.78125 L 47.15625 -46.046875 L 40.28125 -32.125 C 38.238281 -33.851562 35.394531 -34.71875 31.75 -34.71875 C 29.769531 -34.71875 28.066406 -34.285156 26.640625 -33.421875 C 25.210938 -32.554688 24.207031 -31.503906 23.625 -30.265625 C 23.039062 -29.023438 22.625 -27.972656 22.375 -27.109375 C 22.125 -26.242188 22 -25.5625 22 -25.0625 L 22 0 Z M 5.5625 0 "/></g></g></g><g fill="#000000" fill-opacity="0.4"><g transform="translate(227.262557, 228.181674)"><g><path d="M 2.140625 -38.34375 C 2.140625 -49.414062 5.910156 -58.785156 13.453125 -66.453125 C 21.003906 -74.128906 30.101562 -77.96875 40.75 -77.96875 C 51.457031 -77.96875 60.554688 -74.144531 68.046875 -66.5 C 75.535156 -58.863281 79.28125 -49.476562 79.28125 -38.34375 C 79.28125 -27.132812 75.597656 -17.707031 68.234375 -10.0625 C 60.867188 -2.425781 51.707031 1.390625 40.75 1.390625 C 29.550781 1.390625 20.316406 -2.394531 13.046875 -9.96875 C 5.773438 -17.550781 2.140625 -27.007812 2.140625 -38.34375 Z M 20.984375 -38.34375 C 20.984375 -34.3125 21.597656 -30.640625 22.828125 -27.328125 C 24.066406 -24.023438 26.234375 -21.226562 29.328125 -18.9375 C 32.421875 -16.644531 36.226562 -15.5 40.75 -15.5 C 47.25 -15.5 52.15625 -17.726562 55.46875 -22.1875 C 58.78125 -26.644531 60.4375 -32.03125 60.4375 -38.34375 C 60.4375 -44.59375 58.75 -49.957031 55.375 -54.4375 C 52 -58.925781 47.125 -61.171875 40.75 -61.171875 C 34.4375 -61.171875 29.5625 -58.925781 26.125 -54.4375 C 22.695312 -49.957031 20.984375 -44.59375 20.984375 -38.34375 Z M 20.984375 -38.34375 "/></g></g></g><g fill="#000000" fill-opacity="0.4"><g transform="translate(308.67251, 228.181674)"><g><path d="M 0.75 -61.265625 L 0.75 -76.578125 L 54.578125 -76.578125 L 54.578125 -61.265625 L 36.390625 -61.265625 L 36.390625 0 L 18.9375 0 L 18.9375 -61.265625 Z M 0.75 -61.265625 "/></g></g></g><g fill="#545454" fill-opacity="1"><g transform="translate(13.630941, 223.01205)"><g><path d="M 23.015625 -76.578125 L 23.015625 0 L 5.5625 0 L 5.5625 -76.578125 Z M 23.015625 -76.578125 "/></g></g></g><g fill="#545454" fill-opacity="1"><g transform="translate(42.221903, 223.01205)"><g><path d="M 44.46875 -76.578125 L 75.375 0 L 56.625 0 L 50.96875 -15.3125 L 21.8125 -15.3125 L 16.15625 0 L -2.59375 0 L 28.3125 -76.578125 Z M 45.015625 -30.640625 L 36.484375 -52.90625 L 36.296875 -52.90625 L 27.75 -30.640625 Z M 45.015625 -30.640625 "/></g></g></g><g fill="#545454" fill-opacity="1"><g transform="translate(114.998889, 223.01205)"><g><path d="M 3.4375 11.703125 L 16.890625 5.109375 C 19.367188 9.191406 23.671875 11.234375 29.796875 11.234375 C 32.640625 11.234375 35.285156 10.316406 37.734375 8.484375 C 40.179688 6.660156 41.40625 3.863281 41.40625 0.09375 L 41.40625 -3.4375 C 38.488281 -0.21875 33.289062 1.390625 25.8125 1.390625 C 18.9375 1.390625 13.269531 -1.035156 8.8125 -5.890625 C 4.363281 -10.753906 2.140625 -16.710938 2.140625 -23.765625 C 2.140625 -30.816406 4.363281 -36.785156 8.8125 -41.671875 C 13.269531 -46.566406 18.9375 -49.015625 25.8125 -49.015625 C 31.9375 -49.015625 37.039062 -47.125 41.125 -43.34375 L 41.40625 -43.34375 L 41.40625 -47.625 L 57.828125 -47.625 L 57.828125 1.296875 C 57.828125 9.035156 55.257812 15.007812 50.125 19.21875 C 44.988281 23.425781 38.210938 25.53125 29.796875 25.53125 C 16.179688 25.53125 7.394531 20.921875 3.4375 11.703125 Z M 22.78125 -31.84375 C 20.65625 -29.738281 19.59375 -27.046875 19.59375 -23.765625 C 19.59375 -20.484375 20.613281 -17.804688 22.65625 -15.734375 C 24.695312 -13.660156 27.382812 -12.625 30.71875 -12.625 C 33.9375 -12.625 36.582031 -13.675781 38.65625 -15.78125 C 40.726562 -17.882812 41.765625 -20.546875 41.765625 -23.765625 C 41.765625 -27.046875 40.695312 -29.738281 38.5625 -31.84375 C 36.4375 -33.945312 33.820312 -35 30.71875 -35 C 27.5625 -35 24.914062 -33.945312 22.78125 -31.84375 Z M 22.78125 -31.84375 "/></g></g></g><g fill="#545454" fill-opacity="1"><g transform="translate(178.400264, 223.01205)"><g><path d="M 5.5625 0 L 5.5625 -47.625 L 22 -47.625 L 22 -40.75 L 22.1875 -40.75 C 22.3125 -41 22.507812 -41.304688 22.78125 -41.671875 C 23.0625 -42.046875 23.664062 -42.695312 24.59375 -43.625 C 25.519531 -44.550781 26.507812 -45.382812 27.5625 -46.125 C 28.613281 -46.875 29.972656 -47.539062 31.640625 -48.125 C 33.316406 -48.71875 35.023438 -49.015625 36.765625 -49.015625 C 38.554688 -49.015625 40.316406 -48.765625 42.046875 -48.265625 C 43.785156 -47.773438 45.054688 -47.28125 45.859375 -46.78125 L 47.15625 -46.046875 L 40.28125 -32.125 C 38.238281 -33.851562 35.394531 -34.71875 31.75 -34.71875 C 29.769531 -34.71875 28.066406 -34.285156 26.640625 -33.421875 C 25.210938 -32.554688 24.207031 -31.503906 23.625 -30.265625 C 23.039062 -29.023438 22.625 -27.972656 22.375 -27.109375 C 22.125 -26.242188 22 -25.5625 22 -25.0625 L 22 0 Z M 5.5625 0 "/></g></g></g><g fill="#545454" fill-opacity="1"><g transform="translate(224.628504, 223.01205)"><g><path d="M 2.140625 -38.34375 C 2.140625 -49.414062 5.910156 -58.785156 13.453125 -66.453125 C 21.003906 -74.128906 30.101562 -77.96875 40.75 -77.96875 C 51.457031 -77.96875 60.554688 -74.144531 68.046875 -66.5 C 75.535156 -58.863281 79.28125 -49.476562 79.28125 -38.34375 C 79.28125 -27.132812 75.597656 -17.707031 68.234375 -10.0625 C 60.867188 -2.425781 51.707031 1.390625 40.75 1.390625 C 29.550781 1.390625 20.316406 -2.394531 13.046875 -9.96875 C 5.773438 -17.550781 2.140625 -27.007812 2.140625 -38.34375 Z M 20.984375 -38.34375 C 20.984375 -34.3125 21.597656 -30.640625 22.828125 -27.328125 C 24.066406 -24.023438 26.234375 -21.226562 29.328125 -18.9375 C 32.421875 -16.644531 36.226562 -15.5 40.75 -15.5 C 47.25 -15.5 52.15625 -17.726562 55.46875 -22.1875 C 58.78125 -26.644531 60.4375 -32.03125 60.4375 -38.34375 C 60.4375 -44.59375 58.75 -49.957031 55.375 -54.4375 C 52 -58.925781 47.125 -61.171875 40.75 -61.171875 C 34.4375 -61.171875 29.5625 -58.925781 26.125 -54.4375 C 22.695312 -49.957031 20.984375 -44.59375 20.984375 -38.34375 Z M 20.984375 -38.34375 "/></g></g></g><g fill="#545454" fill-opacity="1"><g transform="translate(306.038456, 223.01205)"><g><path d="M 0.75 -61.265625 L 0.75 -76.578125 L 54.578125 -76.578125 L 54.578125 -61.265625 L 36.390625 -61.265625 L 36.390625 0 L 18.9375 0 L 18.9375 -61.265625 Z M 0.75 -61.265625 "/></g></g></g></svg>