<svg xmlns="http://www.w3.org/2000/svg" xmlns:xlink="http://www.w3.org/1999/xlink" width="400" zoomAndPan="magnify" viewBox="0 0 300 187.499995" height="250" preserveAspectRatio="xMidYMid meet" version="1.0"><defs><g/><clipPath id="d33609c2a3"><path d="M 74 4 L 149 4 L 149 58 L 74 58 Z M 74 4 " clip-rule="nonzero"/></clipPath><clipPath id="79c43d4609"><path d="M -6.4375 18.128906 L 148.328125 -3.949219 L 159.105469 71.585938 L 4.335938 93.664062 Z M -6.4375 18.128906 " clip-rule="nonzero"/></clipPath><clipPath id="0b6966010c"><path d="M -6.4375 18.128906 L 148.328125 -3.949219 L 166.394531 122.679688 L 11.625 144.757812 Z M -6.4375 18.128906 " clip-rule="nonzero"/></clipPath><clipPath id="7d245f9d07"><path d="M 107 33 L 126 33 L 126 64 L 107 64 Z M 107 33 " clip-rule="nonzero"/></clipPath><clipPath id="d379bc72a4"><path d="M -6.4375 18.128906 L 148.328125 -3.949219 L 159.105469 71.585938 L 4.335938 93.664062 Z M -6.4375 18.128906 " clip-rule="nonzero"/></clipPath><clipPath id="1740fcb1c8"><path d="M -6.4375 18.128906 L 148.328125 -3.949219 L 166.394531 122.679688 L 11.625 144.757812 Z M -6.4375 18.128906 " clip-rule="nonzero"/></clipPath><clipPath id="529fbc092e"><path d="M 51 56 L 94 56 L 94 94 L 51 94 Z M 51 56 " clip-rule="nonzero"/></clipPath><clipPath id="ee57057b05"><path d="M -6.4375 18.128906 L 148.328125 -3.949219 L 159.105469 71.585938 L 4.335938 93.664062 Z M -6.4375 18.128906 " clip-rule="nonzero"/></clipPath><clipPath id="655bab2f75"><path d="M -6.4375 18.128906 L 148.328125 -3.949219 L 166.394531 122.679688 L 11.625 144.757812 Z M -6.4375 18.128906 " clip-rule="nonzero"/></clipPath></defs><g clip-path="url(#d33609c2a3)"><g clip-path="url(#79c43d4609)"><g clip-path="url(#0b6966010c)"><path fill="#5271ff" d="M 147.039062 6.371094 C 145.25 3.996094 141.929688 3.542969 139.542969 5.335938 L 137.328125 7.015625 C 135.03125 6.09375 128.339844 5.117188 117.246094 14.421875 L 86.527344 6.21875 C 84.050781 5.570312 81.398438 6.734375 80.320312 9.0625 C 79.171875 11.40625 79.917969 14.175781 81.925781 15.714844 L 100.683594 29.503906 L 87.929688 43.953125 L 75.550781 41.507812 L 74.035156 45.644531 L 84.070312 56.03125 C 85.96875 57.414062 88.605469 57.457031 90.515625 55.996094 L 96.089844 51.773438 L 106.550781 43.835938 L 116.4375 36.359375 L 125.011719 29.863281 L 129.273438 26.628906 L 146.039062 13.917969 C 148.410156 12.097656 148.84375 8.726562 147.039062 6.371094 Z M 147.039062 6.371094 " fill-opacity="1" fill-rule="nonzero"/></g></g></g><g clip-path="url(#7d245f9d07)"><g clip-path="url(#d379bc72a4)"><g clip-path="url(#1740fcb1c8)"><path fill="#5271ff" d="M 107.011719 47.082031 L 108.535156 58.550781 C 108.914062 61.023438 110.988281 63.019531 113.589844 63.140625 C 116.15625 63.3125 118.464844 61.5625 119.066406 59.066406 L 125.472656 33.082031 L 116.898438 39.585938 Z M 107.011719 47.082031 " fill-opacity="1" fill-rule="nonzero"/></g></g></g><g clip-path="url(#529fbc092e)"><g clip-path="url(#ee57057b05)"><g clip-path="url(#655bab2f75)"><path fill="#5271ff" d="M 80.113281 61.386719 L 75.566406 56.402344 C 75.566406 56.402344 11.457031 125.359375 93.480469 133.601562 C 93.484375 133.617188 23.363281 122.644531 80.113281 61.386719 Z M 80.113281 61.386719 " fill-opacity="1" fill-rule="nonzero"/></g></g></g><g fill="#5271ff" fill-opacity="1"><g transform="translate(43.228268, 155.730843)"><g><path d="M 19.140625 0.09375 C 16.546875 0.5625 15.082031 0.796875 14.75 0.796875 C 7.832031 0.796875 3.023438 -1.179688 0.328125 -5.140625 C -2.359375 -9.097656 -2.800781 -14.898438 -1 -22.546875 L 8.46875 -63.9375 C 10.195312 -71.3125 13.320312 -76.910156 17.84375 -80.734375 C 22.363281 -84.554688 28.050781 -86.46875 34.90625 -86.46875 C 41.75 -86.46875 46.535156 -84.554688 49.265625 -80.734375 C 51.992188 -76.910156 52.492188 -71.3125 50.765625 -63.9375 L 41.28125 -22.546875 C 39.625 -15.492188 36.734375 -9.90625 32.609375 -5.78125 L 38.890625 -1.09375 L 30.71875 9.078125 Z M 18.34375 -14.953125 C 20.007812 -14.953125 21.253906 -15.75 22.078125 -17.34375 C 22.910156 -18.945312 23.628906 -21.007812 24.234375 -23.53125 L 33.5 -63.625 C 33.96875 -65.820312 34.066406 -67.550781 33.796875 -68.8125 C 33.535156 -70.082031 32.640625 -70.71875 31.109375 -70.71875 C 28.378906 -70.71875 26.484375 -68.390625 25.421875 -63.734375 L 16.046875 -23.234375 C 15.515625 -20.835938 15.332031 -18.859375 15.5 -17.296875 C 15.664062 -15.734375 16.613281 -14.953125 18.34375 -14.953125 Z M 18.34375 -14.953125 "/></g></g></g><g fill="#5271ff" fill-opacity="1"><g transform="translate(92.494989, 155.730843)"><g><path d="M 13.75 0.796875 C 6.707031 0.796875 1.941406 -1.195312 -0.546875 -5.1875 C -3.046875 -9.175781 -3.398438 -15.09375 -1.609375 -22.9375 L 12.859375 -85.671875 L 29.515625 -85.671875 L 15.15625 -23.640625 C 14.550781 -20.910156 14.332031 -18.78125 14.5 -17.25 C 14.664062 -15.71875 15.613281 -14.953125 17.34375 -14.953125 C 19.070312 -14.953125 20.382812 -15.703125 21.28125 -17.203125 C 22.1875 -18.703125 22.9375 -20.847656 23.53125 -23.640625 L 37.890625 -85.671875 L 54.546875 -85.671875 L 40.09375 -22.9375 C 38.289062 -15.09375 35.210938 -9.175781 30.859375 -5.1875 C 26.503906 -1.195312 20.800781 0.796875 13.75 0.796875 Z M 13.75 0.796875 "/></g></g></g><g fill="#5271ff" fill-opacity="1"><g transform="translate(139.767105, 155.730843)"><g><path d="M -6.78125 0 L 12.953125 -85.671875 L 29.515625 -85.671875 L 9.765625 0 Z M -6.78125 0 "/></g></g></g><g fill="#00bf63" fill-opacity="1"><g transform="translate(162.406545, 155.730843)"><g><path d="M 13.75 -85.671875 L 36.390625 -85.671875 C 43.242188 -85.671875 47.617188 -83.457031 49.515625 -79.03125 C 51.410156 -74.613281 51.394531 -68.148438 49.46875 -59.640625 C 47.46875 -51.128906 44.671875 -44.710938 41.078125 -40.390625 C 37.492188 -36.066406 32.34375 -33.90625 25.625 -33.90625 L 18.640625 -33.90625 L 10.859375 0 L -5.984375 0 Z M 23.234375 -49.375 C 25.296875 -49.375 26.890625 -49.753906 28.015625 -50.515625 C 29.148438 -51.273438 30.03125 -52.367188 30.65625 -53.796875 C 31.289062 -55.234375 31.941406 -57.28125 32.609375 -59.9375 C 33.398438 -63.53125 33.578125 -66.125 33.140625 -67.71875 C 32.710938 -69.3125 31.304688 -70.109375 28.921875 -70.109375 L 27.015625 -70.109375 L 22.234375 -49.375 Z M 23.234375 -49.375 "/></g></g></g><g fill="#00bf63" fill-opacity="1"><g transform="translate(209.479196, 155.730843)"><g><path d="M 13.75 0.796875 C 6.707031 0.796875 1.941406 -1.195312 -0.546875 -5.1875 C -3.046875 -9.175781 -3.398438 -15.09375 -1.609375 -22.9375 L 12.859375 -85.671875 L 29.515625 -85.671875 L 15.15625 -23.640625 C 14.550781 -20.910156 14.332031 -18.78125 14.5 -17.25 C 14.664062 -15.71875 15.613281 -14.953125 17.34375 -14.953125 C 19.070312 -14.953125 20.382812 -15.703125 21.28125 -17.203125 C 22.1875 -18.703125 22.9375 -20.847656 23.53125 -23.640625 L 37.890625 -85.671875 L 54.546875 -85.671875 L 40.09375 -22.9375 C 38.289062 -15.09375 35.210938 -9.175781 30.859375 -5.1875 C 26.503906 -1.195312 20.800781 0.796875 13.75 0.796875 Z M 13.75 0.796875 "/></g></g></g></svg>